<mxfile host="app.diagrams.net" modified="2020-08-06T12:39:44.062Z" agent="5.0 (Windows NT 10.0; Win64; x64) AppleWebKit/537.36 (KHTML, like Gecko) Chrome/84.0.4147.105 Safari/537.36" etag="_gNhwN8pa5w-UtcwTO6P" version="13.5.9" type="github">
  <diagram id="fib02sdIHswdbSPIdjaE" name="Page-1">
    <mxGraphModel dx="1865" dy="547" grid="1" gridSize="10" guides="1" tooltips="1" connect="1" arrows="1" fold="1" page="1" pageScale="1" pageWidth="827" pageHeight="1169" math="0" shadow="0">
      <root>
        <mxCell id="0" />
        <mxCell id="1" parent="0" />
        <mxCell id="CmVgD65-O8uPmQslicLz-12" style="edgeStyle=orthogonalEdgeStyle;rounded=0;orthogonalLoop=1;jettySize=auto;html=1;entryX=0;entryY=0.5;entryDx=0;entryDy=0;fontSize=11;" edge="1" parent="1" source="CmVgD65-O8uPmQslicLz-2" target="CmVgD65-O8uPmQslicLz-7">
          <mxGeometry relative="1" as="geometry" />
        </mxCell>
        <mxCell id="CmVgD65-O8uPmQslicLz-2" value="Business Capability Code 2" style="ellipse;whiteSpace=wrap;html=1;aspect=fixed;fontSize=11;" vertex="1" parent="1">
          <mxGeometry x="40" y="120" width="64" height="64" as="geometry" />
        </mxCell>
        <mxCell id="CmVgD65-O8uPmQslicLz-8" style="edgeStyle=orthogonalEdgeStyle;rounded=0;orthogonalLoop=1;jettySize=auto;html=1;entryX=0;entryY=0.5;entryDx=0;entryDy=0;fontSize=11;" edge="1" parent="1" source="CmVgD65-O8uPmQslicLz-3" target="CmVgD65-O8uPmQslicLz-7">
          <mxGeometry relative="1" as="geometry" />
        </mxCell>
        <mxCell id="CmVgD65-O8uPmQslicLz-3" value="Business Capability Code 1" style="ellipse;whiteSpace=wrap;html=1;aspect=fixed;fontSize=11;" vertex="1" parent="1">
          <mxGeometry x="40" y="40" width="64" height="64" as="geometry" />
        </mxCell>
        <mxCell id="CmVgD65-O8uPmQslicLz-10" style="edgeStyle=orthogonalEdgeStyle;rounded=0;orthogonalLoop=1;jettySize=auto;html=1;entryX=0;entryY=0.5;entryDx=0;entryDy=0;fontSize=11;" edge="1" parent="1" source="CmVgD65-O8uPmQslicLz-4" target="CmVgD65-O8uPmQslicLz-7">
          <mxGeometry relative="1" as="geometry" />
        </mxCell>
        <mxCell id="CmVgD65-O8uPmQslicLz-41" style="edgeStyle=none;rounded=0;orthogonalLoop=1;jettySize=auto;html=1;exitX=0;exitY=0.5;exitDx=0;exitDy=0;startArrow=classic;startFill=1;endArrow=none;endFill=0;fontSize=11;" edge="1" parent="1" source="CmVgD65-O8uPmQslicLz-4">
          <mxGeometry relative="1" as="geometry">
            <mxPoint y="232" as="targetPoint" />
          </mxGeometry>
        </mxCell>
        <mxCell id="CmVgD65-O8uPmQslicLz-4" value="Business Capability Code 3" style="ellipse;whiteSpace=wrap;html=1;aspect=fixed;fontSize=11;fillColor=#dae8fc;strokeColor=#6c8ebf;" vertex="1" parent="1">
          <mxGeometry x="40" y="200" width="64" height="64" as="geometry" />
        </mxCell>
        <mxCell id="CmVgD65-O8uPmQslicLz-11" style="edgeStyle=orthogonalEdgeStyle;rounded=0;orthogonalLoop=1;jettySize=auto;html=1;entryX=0;entryY=0.5;entryDx=0;entryDy=0;fontSize=11;" edge="1" parent="1" source="CmVgD65-O8uPmQslicLz-5" target="CmVgD65-O8uPmQslicLz-7">
          <mxGeometry relative="1" as="geometry" />
        </mxCell>
        <mxCell id="CmVgD65-O8uPmQslicLz-42" style="edgeStyle=none;rounded=0;orthogonalLoop=1;jettySize=auto;html=1;exitX=0;exitY=0.5;exitDx=0;exitDy=0;startArrow=classic;startFill=1;endArrow=none;endFill=0;fontSize=11;" edge="1" parent="1" source="CmVgD65-O8uPmQslicLz-5">
          <mxGeometry relative="1" as="geometry">
            <mxPoint y="312" as="targetPoint" />
          </mxGeometry>
        </mxCell>
        <mxCell id="CmVgD65-O8uPmQslicLz-5" value="Business Capability Code 4" style="ellipse;whiteSpace=wrap;html=1;aspect=fixed;fontSize=11;fillColor=#dae8fc;strokeColor=#6c8ebf;" vertex="1" parent="1">
          <mxGeometry x="40" y="280" width="64" height="64" as="geometry" />
        </mxCell>
        <mxCell id="CmVgD65-O8uPmQslicLz-13" value="" style="edgeStyle=orthogonalEdgeStyle;rounded=0;orthogonalLoop=1;jettySize=auto;html=1;fontSize=11;" edge="1" parent="1" source="CmVgD65-O8uPmQslicLz-7">
          <mxGeometry relative="1" as="geometry">
            <mxPoint x="340" y="195" as="targetPoint" />
          </mxGeometry>
        </mxCell>
        <mxCell id="CmVgD65-O8uPmQslicLz-7" value="Application Code" style="ellipse;whiteSpace=wrap;html=1;aspect=fixed;fontSize=11;fillColor=#dae8fc;strokeColor=#6c8ebf;" vertex="1" parent="1">
          <mxGeometry x="170" y="140" width="110" height="110" as="geometry" />
        </mxCell>
        <mxCell id="CmVgD65-O8uPmQslicLz-14" value="Business Capability Code 1" style="ellipse;whiteSpace=wrap;html=1;aspect=fixed;fontSize=11;" vertex="1" parent="1">
          <mxGeometry x="40" y="40" width="64" height="64" as="geometry" />
        </mxCell>
        <mxCell id="CmVgD65-O8uPmQslicLz-15" value="Business Capability Code 2" style="ellipse;whiteSpace=wrap;html=1;aspect=fixed;fontSize=11;" vertex="1" parent="1">
          <mxGeometry x="40" y="120" width="64" height="64" as="geometry" />
        </mxCell>
        <mxCell id="CmVgD65-O8uPmQslicLz-16" value="Business Capability Code 1" style="ellipse;whiteSpace=wrap;html=1;aspect=fixed;fontSize=11;" vertex="1" parent="1">
          <mxGeometry x="40" y="40" width="64" height="64" as="geometry" />
        </mxCell>
        <mxCell id="CmVgD65-O8uPmQslicLz-17" value="Business Capability Code 2" style="ellipse;whiteSpace=wrap;html=1;aspect=fixed;fontSize=11;" vertex="1" parent="1">
          <mxGeometry x="40" y="120" width="64" height="64" as="geometry" />
        </mxCell>
        <mxCell id="CmVgD65-O8uPmQslicLz-39" style="edgeStyle=none;rounded=0;orthogonalLoop=1;jettySize=auto;html=1;exitX=0;exitY=0.5;exitDx=0;exitDy=0;fontSize=11;startArrow=classic;startFill=1;endArrow=none;endFill=0;" edge="1" parent="1" source="CmVgD65-O8uPmQslicLz-18">
          <mxGeometry relative="1" as="geometry">
            <mxPoint y="72" as="targetPoint" />
          </mxGeometry>
        </mxCell>
        <mxCell id="CmVgD65-O8uPmQslicLz-18" value="Business Capability Code 1" style="ellipse;whiteSpace=wrap;html=1;aspect=fixed;fontSize=11;fillColor=#dae8fc;strokeColor=#6c8ebf;" vertex="1" parent="1">
          <mxGeometry x="40" y="40" width="64" height="64" as="geometry" />
        </mxCell>
        <mxCell id="CmVgD65-O8uPmQslicLz-40" style="edgeStyle=none;rounded=0;orthogonalLoop=1;jettySize=auto;html=1;exitX=0;exitY=0.5;exitDx=0;exitDy=0;startArrow=classic;startFill=1;endArrow=none;endFill=0;fontSize=11;" edge="1" parent="1" source="CmVgD65-O8uPmQslicLz-19">
          <mxGeometry relative="1" as="geometry">
            <mxPoint y="152" as="targetPoint" />
          </mxGeometry>
        </mxCell>
        <mxCell id="CmVgD65-O8uPmQslicLz-19" value="Business Capability Code 2" style="ellipse;whiteSpace=wrap;html=1;aspect=fixed;fontSize=11;fillColor=#dae8fc;strokeColor=#6c8ebf;" vertex="1" parent="1">
          <mxGeometry x="40" y="120" width="64" height="64" as="geometry" />
        </mxCell>
        <mxCell id="CmVgD65-O8uPmQslicLz-20" value="Application" style="ellipse;whiteSpace=wrap;html=1;aspect=fixed;fontSize=11;fillColor=#dae8fc;strokeColor=#6c8ebf;" vertex="1" parent="1">
          <mxGeometry x="340" y="140" width="110" height="110" as="geometry" />
        </mxCell>
        <mxCell id="CmVgD65-O8uPmQslicLz-22" value="" style="shape=umlActor;verticalLabelPosition=bottom;verticalAlign=top;html=1;outlineConnect=0;fontSize=11;" vertex="1" parent="1">
          <mxGeometry x="-45" y="127" width="10" height="20" as="geometry" />
        </mxCell>
        <mxCell id="CmVgD65-O8uPmQslicLz-23" value="" style="shape=umlActor;verticalLabelPosition=bottom;verticalAlign=top;html=1;outlineConnect=0;fontSize=11;" vertex="1" parent="1">
          <mxGeometry x="-25" y="127" width="10" height="20" as="geometry" />
        </mxCell>
        <mxCell id="CmVgD65-O8uPmQslicLz-24" value="" style="shape=umlActor;verticalLabelPosition=bottom;verticalAlign=top;html=1;outlineConnect=0;fontSize=11;" vertex="1" parent="1">
          <mxGeometry x="-65" y="127" width="10" height="20" as="geometry" />
        </mxCell>
        <mxCell id="CmVgD65-O8uPmQslicLz-26" value="Development Team 2" style="text;html=1;strokeColor=none;fillColor=none;align=center;verticalAlign=middle;whiteSpace=wrap;rounded=0;fontSize=11;" vertex="1" parent="1">
          <mxGeometry x="-70" y="157" width="60" height="20" as="geometry" />
        </mxCell>
        <mxCell id="CmVgD65-O8uPmQslicLz-27" value="" style="shape=umlActor;verticalLabelPosition=bottom;verticalAlign=top;html=1;outlineConnect=0;fontSize=11;" vertex="1" parent="1">
          <mxGeometry x="-45" y="47" width="10" height="20" as="geometry" />
        </mxCell>
        <mxCell id="CmVgD65-O8uPmQslicLz-28" value="" style="shape=umlActor;verticalLabelPosition=bottom;verticalAlign=top;html=1;outlineConnect=0;fontSize=11;" vertex="1" parent="1">
          <mxGeometry x="-25" y="47" width="10" height="20" as="geometry" />
        </mxCell>
        <mxCell id="CmVgD65-O8uPmQslicLz-29" value="" style="shape=umlActor;verticalLabelPosition=bottom;verticalAlign=top;html=1;outlineConnect=0;fontSize=11;" vertex="1" parent="1">
          <mxGeometry x="-65" y="47" width="10" height="20" as="geometry" />
        </mxCell>
        <mxCell id="CmVgD65-O8uPmQslicLz-30" value="Development Team 1" style="text;html=1;strokeColor=none;fillColor=none;align=center;verticalAlign=middle;whiteSpace=wrap;rounded=0;fontSize=11;" vertex="1" parent="1">
          <mxGeometry x="-70" y="77" width="60" height="20" as="geometry" />
        </mxCell>
        <mxCell id="CmVgD65-O8uPmQslicLz-31" value="" style="shape=umlActor;verticalLabelPosition=bottom;verticalAlign=top;html=1;outlineConnect=0;fontSize=11;" vertex="1" parent="1">
          <mxGeometry x="-45" y="207" width="10" height="20" as="geometry" />
        </mxCell>
        <mxCell id="CmVgD65-O8uPmQslicLz-32" value="" style="shape=umlActor;verticalLabelPosition=bottom;verticalAlign=top;html=1;outlineConnect=0;fontSize=11;" vertex="1" parent="1">
          <mxGeometry x="-25" y="207" width="10" height="20" as="geometry" />
        </mxCell>
        <mxCell id="CmVgD65-O8uPmQslicLz-33" value="" style="shape=umlActor;verticalLabelPosition=bottom;verticalAlign=top;html=1;outlineConnect=0;fontSize=11;" vertex="1" parent="1">
          <mxGeometry x="-65" y="207" width="10" height="20" as="geometry" />
        </mxCell>
        <mxCell id="CmVgD65-O8uPmQslicLz-34" value="Development Team 3" style="text;html=1;strokeColor=none;fillColor=none;align=center;verticalAlign=middle;whiteSpace=wrap;rounded=0;fontSize=11;" vertex="1" parent="1">
          <mxGeometry x="-70" y="237" width="60" height="20" as="geometry" />
        </mxCell>
        <mxCell id="CmVgD65-O8uPmQslicLz-35" value="" style="shape=umlActor;verticalLabelPosition=bottom;verticalAlign=top;html=1;outlineConnect=0;fontSize=11;" vertex="1" parent="1">
          <mxGeometry x="-45" y="287" width="10" height="20" as="geometry" />
        </mxCell>
        <mxCell id="CmVgD65-O8uPmQslicLz-36" value="" style="shape=umlActor;verticalLabelPosition=bottom;verticalAlign=top;html=1;outlineConnect=0;fontSize=11;" vertex="1" parent="1">
          <mxGeometry x="-25" y="287" width="10" height="20" as="geometry" />
        </mxCell>
        <mxCell id="CmVgD65-O8uPmQslicLz-37" value="" style="shape=umlActor;verticalLabelPosition=bottom;verticalAlign=top;html=1;outlineConnect=0;fontSize=11;" vertex="1" parent="1">
          <mxGeometry x="-65" y="287" width="10" height="20" as="geometry" />
        </mxCell>
        <mxCell id="CmVgD65-O8uPmQslicLz-38" value="Development Team 4" style="text;html=1;strokeColor=none;fillColor=none;align=center;verticalAlign=middle;whiteSpace=wrap;rounded=0;fontSize=11;" vertex="1" parent="1">
          <mxGeometry x="-70" y="317" width="60" height="20" as="geometry" />
        </mxCell>
        <mxCell id="CmVgD65-O8uPmQslicLz-43" style="edgeStyle=none;rounded=0;orthogonalLoop=1;jettySize=auto;html=1;exitX=0;exitY=0.5;exitDx=0;exitDy=0;startArrow=classic;startFill=1;endArrow=none;endFill=0;fontSize=11;" edge="1" parent="1">
          <mxGeometry relative="1" as="geometry">
            <mxPoint x="-120" y="232" as="targetPoint" />
            <mxPoint x="-80" y="232" as="sourcePoint" />
          </mxGeometry>
        </mxCell>
        <mxCell id="CmVgD65-O8uPmQslicLz-44" style="edgeStyle=none;rounded=0;orthogonalLoop=1;jettySize=auto;html=1;exitX=0;exitY=0.5;exitDx=0;exitDy=0;startArrow=classic;startFill=1;endArrow=none;endFill=0;fontSize=11;" edge="1" parent="1">
          <mxGeometry relative="1" as="geometry">
            <mxPoint x="-120" y="312" as="targetPoint" />
            <mxPoint x="-80" y="312" as="sourcePoint" />
          </mxGeometry>
        </mxCell>
        <mxCell id="CmVgD65-O8uPmQslicLz-45" style="edgeStyle=none;rounded=0;orthogonalLoop=1;jettySize=auto;html=1;exitX=0;exitY=0.5;exitDx=0;exitDy=0;fontSize=11;startArrow=classic;startFill=1;endArrow=none;endFill=0;" edge="1" parent="1">
          <mxGeometry relative="1" as="geometry">
            <mxPoint x="-120" y="72" as="targetPoint" />
            <mxPoint x="-80" y="72" as="sourcePoint" />
          </mxGeometry>
        </mxCell>
        <mxCell id="CmVgD65-O8uPmQslicLz-46" style="edgeStyle=none;rounded=0;orthogonalLoop=1;jettySize=auto;html=1;exitX=0;exitY=0.5;exitDx=0;exitDy=0;startArrow=classic;startFill=1;endArrow=none;endFill=0;fontSize=11;" edge="1" parent="1">
          <mxGeometry relative="1" as="geometry">
            <mxPoint x="-120" y="152" as="targetPoint" />
            <mxPoint x="-80" y="152" as="sourcePoint" />
          </mxGeometry>
        </mxCell>
        <mxCell id="CmVgD65-O8uPmQslicLz-47" value="" style="shape=umlActor;verticalLabelPosition=bottom;verticalAlign=top;html=1;outlineConnect=0;fontSize=11;" vertex="1" parent="1">
          <mxGeometry x="-165" y="127" width="10" height="20" as="geometry" />
        </mxCell>
        <mxCell id="CmVgD65-O8uPmQslicLz-48" value="" style="shape=umlActor;verticalLabelPosition=bottom;verticalAlign=top;html=1;outlineConnect=0;fontSize=11;" vertex="1" parent="1">
          <mxGeometry x="-145" y="127" width="10" height="20" as="geometry" />
        </mxCell>
        <mxCell id="CmVgD65-O8uPmQslicLz-49" value="" style="shape=umlActor;verticalLabelPosition=bottom;verticalAlign=top;html=1;outlineConnect=0;fontSize=11;" vertex="1" parent="1">
          <mxGeometry x="-185" y="127" width="10" height="20" as="geometry" />
        </mxCell>
        <mxCell id="CmVgD65-O8uPmQslicLz-50" value="Business Area 2" style="text;html=1;strokeColor=none;fillColor=none;align=center;verticalAlign=middle;whiteSpace=wrap;rounded=0;fontSize=11;" vertex="1" parent="1">
          <mxGeometry x="-190" y="157" width="60" height="20" as="geometry" />
        </mxCell>
        <mxCell id="CmVgD65-O8uPmQslicLz-51" value="" style="shape=umlActor;verticalLabelPosition=bottom;verticalAlign=top;html=1;outlineConnect=0;fontSize=11;" vertex="1" parent="1">
          <mxGeometry x="-165" y="47" width="10" height="20" as="geometry" />
        </mxCell>
        <mxCell id="CmVgD65-O8uPmQslicLz-52" value="" style="shape=umlActor;verticalLabelPosition=bottom;verticalAlign=top;html=1;outlineConnect=0;fontSize=11;" vertex="1" parent="1">
          <mxGeometry x="-145" y="47" width="10" height="20" as="geometry" />
        </mxCell>
        <mxCell id="CmVgD65-O8uPmQslicLz-53" value="" style="shape=umlActor;verticalLabelPosition=bottom;verticalAlign=top;html=1;outlineConnect=0;fontSize=11;" vertex="1" parent="1">
          <mxGeometry x="-185" y="47" width="10" height="20" as="geometry" />
        </mxCell>
        <mxCell id="CmVgD65-O8uPmQslicLz-54" value="Business Area 1" style="text;html=1;strokeColor=none;fillColor=none;align=center;verticalAlign=middle;whiteSpace=wrap;rounded=0;fontSize=11;" vertex="1" parent="1">
          <mxGeometry x="-190" y="77" width="60" height="20" as="geometry" />
        </mxCell>
        <mxCell id="CmVgD65-O8uPmQslicLz-55" value="" style="shape=umlActor;verticalLabelPosition=bottom;verticalAlign=top;html=1;outlineConnect=0;fontSize=11;" vertex="1" parent="1">
          <mxGeometry x="-165" y="207" width="10" height="20" as="geometry" />
        </mxCell>
        <mxCell id="CmVgD65-O8uPmQslicLz-56" value="" style="shape=umlActor;verticalLabelPosition=bottom;verticalAlign=top;html=1;outlineConnect=0;fontSize=11;" vertex="1" parent="1">
          <mxGeometry x="-145" y="207" width="10" height="20" as="geometry" />
        </mxCell>
        <mxCell id="CmVgD65-O8uPmQslicLz-57" value="" style="shape=umlActor;verticalLabelPosition=bottom;verticalAlign=top;html=1;outlineConnect=0;fontSize=11;" vertex="1" parent="1">
          <mxGeometry x="-185" y="207" width="10" height="20" as="geometry" />
        </mxCell>
        <mxCell id="CmVgD65-O8uPmQslicLz-58" value="Business Area 3" style="text;html=1;strokeColor=none;fillColor=none;align=center;verticalAlign=middle;whiteSpace=wrap;rounded=0;fontSize=11;" vertex="1" parent="1">
          <mxGeometry x="-190" y="237" width="60" height="20" as="geometry" />
        </mxCell>
        <mxCell id="CmVgD65-O8uPmQslicLz-59" value="" style="shape=umlActor;verticalLabelPosition=bottom;verticalAlign=top;html=1;outlineConnect=0;fontSize=11;" vertex="1" parent="1">
          <mxGeometry x="-165" y="287" width="10" height="20" as="geometry" />
        </mxCell>
        <mxCell id="CmVgD65-O8uPmQslicLz-60" value="" style="shape=umlActor;verticalLabelPosition=bottom;verticalAlign=top;html=1;outlineConnect=0;fontSize=11;" vertex="1" parent="1">
          <mxGeometry x="-145" y="287" width="10" height="20" as="geometry" />
        </mxCell>
        <mxCell id="CmVgD65-O8uPmQslicLz-61" value="" style="shape=umlActor;verticalLabelPosition=bottom;verticalAlign=top;html=1;outlineConnect=0;fontSize=11;" vertex="1" parent="1">
          <mxGeometry x="-185" y="287" width="10" height="20" as="geometry" />
        </mxCell>
        <mxCell id="CmVgD65-O8uPmQslicLz-62" value="Business Area 4" style="text;html=1;strokeColor=none;fillColor=none;align=center;verticalAlign=middle;whiteSpace=wrap;rounded=0;fontSize=11;" vertex="1" parent="1">
          <mxGeometry x="-190" y="317" width="60" height="20" as="geometry" />
        </mxCell>
      </root>
    </mxGraphModel>
  </diagram>
</mxfile>
